<svg width="522" height="335" viewBox="0 0 522 335" fill="none" xmlns="http://www.w3.org/2000/svg">
<g clip-path="url(#clip0_905_34)">
<path d="M142.523 273.991C156.694 273.991 168.182 259.197 168.182 240.948C168.182 222.698 156.694 207.904 142.523 207.904C128.352 207.904 116.864 222.698 116.864 240.948C116.864 259.197 128.352 273.991 142.523 273.991Z" fill="#E4E4E4"/>
<path opacity="0.2" d="M123.577 218.877C121.184 226.087 120.859 234.158 122.661 241.648C124.463 249.137 128.275 255.558 133.414 259.762C138.554 263.966 144.687 265.679 150.717 264.596C156.748 263.513 162.283 259.704 166.333 253.849C164.871 258.254 162.683 262.197 159.92 265.405C157.157 268.612 153.886 271.008 150.332 272.426C146.779 273.844 143.029 274.25 139.342 273.616C135.655 272.982 132.118 271.324 128.978 268.756C125.838 266.187 123.17 262.77 121.157 258.742C119.144 254.713 117.835 250.169 117.321 245.425C116.808 240.68 117.101 235.849 118.181 231.265C119.262 226.681 121.103 222.454 123.577 218.877Z" fill="#96C6DA"/>
<path d="M142.594 240.948H142.664L143.933 334.63H141.254L142.594 240.948Z" fill="#3F3D56"/>
<path d="M90.6073 212.37C119.179 212.37 142.341 182.543 142.341 145.749C142.341 108.955 119.179 79.1281 90.6073 79.1281C62.0357 79.1281 38.8739 108.955 38.8739 145.749C38.8739 182.543 62.0357 212.37 90.6073 212.37Z" fill="#E4E4E4"/>
<path opacity="0.2" d="M52.4091 101.251C47.5835 115.788 46.9289 132.06 50.5622 147.16C54.1955 162.261 61.88 175.206 72.2425 183.682C82.6049 192.158 94.9701 195.612 107.128 193.429C119.287 191.245 130.446 183.565 138.612 171.761C135.664 180.642 131.252 188.592 125.682 195.059C120.112 201.526 113.516 206.357 106.352 209.215C99.1881 212.074 91.6272 212.893 84.1931 211.615C76.759 210.337 69.6296 206.993 63.2987 201.815C56.9678 196.637 51.5868 189.748 47.5286 181.625C43.4704 173.503 40.8319 164.342 39.7961 154.776C38.7603 145.21 39.3518 135.469 41.5297 126.227C43.7076 116.985 47.4198 108.463 52.4091 101.251Z" fill="#3E8E8A"/>
<path d="M90.7494 145.749H90.8918L93.4501 334.63H88.0492L90.7494 145.749Z" fill="#3F3D56"/>
<path d="M431.687 236.866H194.564V327.388H431.687V236.866Z" fill="#F0F0F0"/>
<path d="M326.95 255.574H299.301V327.388H326.95V255.574Z" fill="#96C6DA"/>
<path d="M417.862 130.05H208.388V213.331H417.862V130.05Z" fill="#F0F0F0"/>
<path d="M439.1 135.18H187.151C186.73 135.18 186.319 135.018 185.971 134.715C185.622 134.411 185.352 133.981 185.195 133.479C185.038 132.976 185.001 132.425 185.089 131.895C185.177 131.365 185.386 130.882 185.69 130.506L254.547 45.2729V8.147C254.548 7.42701 254.77 6.73675 255.166 6.22763C255.561 5.71852 256.097 5.43215 256.656 5.43134H270.246C270.805 5.43213 271.341 5.7185 271.737 6.22761C272.132 6.73673 272.354 7.42701 272.355 8.147V23.2305L277.556 16.7926C286.067 6.25754 297.359 0.26109 309.162 0.00832711C320.965 -0.244435 332.406 5.26521 341.184 15.43L440.509 130.444C440.827 130.812 441.05 131.294 441.15 131.829C441.25 132.363 441.221 132.923 441.068 133.436C440.916 133.949 440.646 134.39 440.294 134.702C439.943 135.013 439.526 135.18 439.1 135.18Z" fill="#404660"/>
<path d="M263.685 151.172C265.439 151.172 267.176 151.617 268.796 152.481C270.417 153.346 271.889 154.612 273.129 156.21C274.37 157.807 275.353 159.703 276.025 161.789C276.696 163.876 277.041 166.113 277.041 168.371V191.605H250.33V168.371C250.33 166.113 250.675 163.876 251.346 161.789C252.018 159.703 253.001 157.807 254.242 156.21C255.482 154.612 256.954 153.346 258.574 152.481C260.195 151.617 261.932 151.172 263.685 151.172Z" fill="white"/>
<path d="M313.125 151.474C316.667 151.474 320.065 153.286 322.569 156.511C325.074 159.737 326.481 164.111 326.481 168.673V191.907H299.77V168.673C299.77 164.111 301.177 159.737 303.681 156.511C306.186 153.286 309.583 151.474 313.125 151.474Z" fill="white"/>
<path d="M362.565 151.776C366.107 151.776 369.504 153.588 372.009 156.813C374.514 160.039 375.921 164.413 375.921 168.975V192.209H349.209V168.975C349.209 164.413 350.616 160.039 353.121 156.813C355.626 153.588 359.023 151.776 362.565 151.776Z" fill="white"/>
<path d="M382.247 254.669C385.789 254.669 389.186 256.481 391.691 259.706C394.196 262.932 395.603 267.307 395.603 271.868V295.102H368.891V271.868C368.891 267.307 370.298 262.932 372.803 259.706C375.308 256.481 378.705 254.669 382.247 254.669Z" fill="white"/>
<path d="M250.095 254.669C253.638 254.669 257.035 256.481 259.539 259.706C262.044 262.932 263.451 267.307 263.451 271.868V295.102H236.74V271.868C236.74 269.61 237.085 267.373 237.756 265.286C238.427 263.2 239.411 261.304 240.651 259.706C241.892 258.109 243.364 256.842 244.984 255.978C246.605 255.114 248.341 254.669 250.095 254.669Z" fill="white"/>
<path d="M466.33 238.28L421.848 212.934C421.609 212.797 421.351 212.727 421.09 212.727H209.097C208.855 212.727 208.616 212.787 208.391 212.905L159.973 238.251C159.57 238.462 159.237 238.846 159.03 239.339C158.823 239.831 158.756 240.401 158.839 240.95C158.923 241.5 159.152 241.995 159.487 242.351C159.823 242.706 160.244 242.901 160.679 242.901H173.241V326.182H171.835V334.63H454.415V326.181H452.072V242.901H465.571C466.001 242.901 466.418 242.711 466.752 242.362C467.086 242.014 467.316 241.528 467.405 240.986C467.494 240.445 467.436 239.88 467.24 239.388C467.044 238.895 466.723 238.504 466.33 238.28ZM448.323 326.181H176.99V242.901H448.323V326.181Z" fill="#404660"/>
<path d="M280.322 188.286H246.112V195.528H280.322V188.286Z" fill="#96C6DA"/>
<path d="M330.464 188.286H296.255V195.528H330.464V188.286Z" fill="#CACACA"/>
<path d="M380.607 188.286H346.397V195.528H380.607V188.286Z" fill="#CACACA"/>
<path d="M399.352 292.688H365.142V299.93H399.352V292.688Z" fill="#96C6DA"/>
<path d="M266.732 292.688H232.522V299.93H266.732V292.688Z" fill="#96C6DA"/>
<path d="M521.426 335H0.574257C0.421955 335 0.27589 334.922 0.168196 334.783C0.0605015 334.645 0 334.457 0 334.261C0 334.064 0.0605015 333.876 0.168196 333.738C0.27589 333.599 0.421955 333.521 0.574257 333.521H521.426C521.578 333.521 521.724 333.599 521.832 333.738C521.94 333.876 522 334.064 522 334.261C522 334.457 521.94 334.645 521.832 334.783C521.724 334.922 521.578 335 521.426 335Z" fill="#3F3D56"/>
<path d="M390.418 128.809C390.418 129.282 390.413 129.763 390.407 130.236C390.401 130.805 390.39 131.367 390.372 131.937C390.355 132.432 390.338 132.92 390.315 133.408C390.246 135.043 390.137 136.67 389.988 138.304C389.953 138.718 389.913 139.125 389.867 139.539C389.833 139.857 389.798 140.182 389.758 140.508C389.718 140.87 389.678 141.232 389.632 141.595C389.54 142.364 389.436 143.133 389.321 143.902C389.264 144.287 389.207 144.671 389.144 145.056C389.023 145.817 388.891 146.587 388.753 147.348C388.742 147.407 388.73 147.474 388.719 147.533C388.65 147.91 388.581 148.28 388.506 148.657C388.483 148.768 388.466 148.872 388.437 148.983C388.385 149.264 388.328 149.545 388.271 149.826C388.19 150.218 388.11 150.602 388.024 150.994C387.886 151.6 387.748 152.199 387.605 152.806C387.587 152.869 387.571 152.933 387.559 152.998C387.283 154.144 386.99 155.276 386.668 156.4C386.502 156.991 386.324 157.59 386.146 158.182C385.968 158.774 385.784 159.365 385.595 159.95C385.411 160.519 385.221 161.088 385.032 161.65C384.986 161.784 384.94 161.917 384.888 162.05C384.687 162.634 384.48 163.203 384.268 163.773C384.262 163.78 384.262 163.795 384.257 163.802C384.09 164.261 383.912 164.719 383.734 165.171C383.734 165.184 383.73 165.197 383.722 165.207C383.55 165.651 383.372 166.095 383.188 166.531L382.896 167.248L382.861 167.33C382.494 168.21 382.115 169.083 381.713 169.948C381.626 170.14 381.54 170.332 381.454 170.517C381.368 170.709 381.276 170.902 381.184 171.087C381.127 171.22 381.064 171.353 380.995 171.486C380.874 171.737 380.754 171.996 380.627 172.248C380.604 172.299 380.576 172.351 380.553 172.403C380.334 172.839 380.116 173.268 379.898 173.704C379.628 174.229 379.352 174.747 379.071 175.265L372.835 188.118L372.565 187.829L372.49 187.74H372.484L372.237 187.474L371.56 186.735C371.353 186.994 371.152 187.252 370.945 187.504C370.865 187.607 370.779 187.703 370.698 187.807C370.635 187.881 370.578 187.955 370.515 188.029C359.733 201.588 345.391 209.439 330.328 210.029H330.311C318.908 210.433 307.62 207.002 297.561 200.075C297.337 199.927 297.119 199.78 296.9 199.609C295.591 198.692 294.311 197.724 293.053 196.688C293.047 196.681 293.041 196.681 293.036 196.674C291.577 195.342 290.153 193.923 288.763 192.414C281.308 184.321 275.409 174.114 271.531 162.594C267.652 151.074 265.898 138.553 266.407 126.013C266.425 125.518 266.448 125.029 266.476 124.534C266.568 122.744 266.71 120.962 266.901 119.187C266.953 118.692 267.011 118.196 267.068 117.708H389.833C390.074 119.971 390.24 122.246 390.332 124.534C390.39 125.961 390.418 127.381 390.418 128.809Z" fill="#F0F0F0"/>
<path d="M389.833 117.709C387.622 98.781 380.212 81.503 368.947 69.0155C357.683 56.528 343.313 49.66 328.45 49.66C313.587 49.66 299.217 56.528 287.953 69.0155C276.689 81.503 269.278 98.781 267.068 117.709C267.01 118.197 266.953 118.692 266.901 119.188C266.712 120.962 266.57 122.745 266.476 124.534H390.332C390.24 122.249 390.074 119.974 389.833 117.709Z" fill="#F5F4FB"/>
<path d="M332.471 200.073H296.903V163.433C297.56 146.688 308.673 145.336 319.116 146.235C320.87 146.234 322.606 146.679 324.227 147.543C325.847 148.408 327.32 149.674 328.56 151.271C329.8 152.868 330.784 154.764 331.455 156.851C332.126 158.938 332.472 161.174 332.471 163.433V200.073Z" fill="#F5F4FB"/>
<path d="M296.9 174.023V174.03C296.9 174.037 296.906 174.037 296.912 174.037L296.9 174.023ZM282.596 117.708C282.573 117.893 282.544 118.078 282.521 118.263C282.544 118.078 282.573 117.893 282.602 117.708H282.596ZM281.884 124.534C281.866 124.815 281.849 125.096 281.838 125.377C281.849 125.096 281.866 124.815 281.889 124.534C281.888 124.482 281.89 124.43 281.895 124.379C281.889 124.431 281.889 124.482 281.884 124.534ZM296.9 174.03C296.9 174.037 296.906 174.037 296.912 174.037L296.9 174.023V174.03ZM282.596 117.708C282.573 117.893 282.544 118.078 282.521 118.263C282.544 118.078 282.573 117.893 282.602 117.708H282.596ZM281.838 125.377C281.849 125.096 281.866 124.815 281.889 124.534C281.888 124.482 281.89 124.43 281.895 124.379C281.889 124.431 281.889 124.482 281.884 124.534C281.866 124.815 281.849 125.096 281.838 125.377ZM459.249 261.418C459.137 261.266 459.018 261.123 458.893 260.989L458.887 260.982L430.45 230.078L429.715 229.279L426.918 226.24L426.218 225.478L422.232 221.144L421.141 219.961L418.884 217.506L417.73 216.249L406.842 204.424L400.6 197.643L399.762 196.733L381.368 176.744C381.649 176.226 381.925 175.709 382.195 175.184C382.413 174.747 382.631 174.318 382.85 173.882C382.873 173.83 382.901 173.778 382.924 173.727C383.051 173.475 383.171 173.216 383.292 172.965C383.361 172.832 383.424 172.699 383.481 172.566C383.573 172.381 383.665 172.189 383.751 171.996C383.837 171.811 383.923 171.619 384.01 171.427C384.412 170.562 384.791 169.689 385.158 168.809L385.193 168.728L385.485 168.01C385.669 167.574 385.847 167.13 386.019 166.687C386.027 166.676 386.031 166.663 386.031 166.65C386.209 166.198 386.387 165.74 386.554 165.282C386.559 165.274 386.559 165.259 386.565 165.252C386.777 164.683 386.984 164.113 387.185 163.529C387.237 163.396 387.283 163.263 387.329 163.13C387.518 162.567 387.708 161.998 387.892 161.429C388.081 160.844 388.265 160.253 388.443 159.661C388.621 159.07 388.799 158.471 388.965 157.879C389.281 156.748 389.578 155.614 389.856 154.477C389.868 154.412 389.884 154.348 389.902 154.285C390.045 153.679 390.183 153.08 390.321 152.473C390.407 152.081 390.487 151.697 390.568 151.305C390.625 151.024 390.683 150.743 390.734 150.462C390.763 150.351 390.78 150.247 390.803 150.136C390.878 149.759 390.947 149.389 391.016 149.012C391.027 148.953 391.039 148.887 391.05 148.827C391.188 148.066 391.32 147.297 391.441 146.535C391.504 146.15 391.561 145.766 391.618 145.381C391.728 144.612 391.837 143.843 391.929 143.074C391.975 142.712 392.015 142.349 392.055 141.987C392.095 141.661 392.13 141.336 392.164 141.018C392.21 140.604 392.25 140.197 392.285 139.783C392.434 138.149 392.543 136.522 392.612 134.887C392.635 134.399 392.652 133.911 392.669 133.416C392.687 132.846 392.698 132.284 392.704 131.715C392.71 131.242 392.715 130.761 392.715 130.288C392.715 128.86 392.687 127.441 392.629 126.013C392.537 123.728 392.371 121.453 392.13 119.188C390.072 99.8231 382.672 82.0589 371.282 69.1419C359.891 56.225 345.272 49.0181 330.095 48.8386C314.919 48.6592 300.199 55.519 288.626 68.1644C277.053 80.8098 269.401 98.396 267.068 117.709C267.01 118.197 266.953 118.692 266.901 119.188C266.712 120.962 266.57 122.745 266.476 124.534C266.448 125.03 266.425 125.518 266.407 126.013C265.898 138.553 267.652 151.074 271.531 162.594C275.409 174.115 281.308 184.322 288.763 192.414C290.153 193.923 291.577 195.343 293.036 196.674C293.041 196.681 293.047 196.681 293.053 196.689C293.541 197.132 294.029 197.569 294.523 197.998C295.31 198.663 296.102 199.314 296.9 199.935C296.964 199.979 297.027 200.031 297.09 200.076C297.779 200.608 298.474 201.118 299.169 201.614H299.174C301.761 203.445 304.446 205.037 307.208 206.376C315.314 210.303 323.958 212.05 332.608 211.509H332.625C342.721 210.88 352.551 207.133 361.286 200.586C362.555 199.639 363.807 198.626 365.03 197.546C365.335 197.28 365.645 197.007 365.943 196.733C366.311 196.4 366.678 196.053 367.046 195.705C367.052 195.705 367.052 195.698 367.058 195.698C367.085 195.668 367.114 195.641 367.144 195.616C367.391 195.372 367.643 195.128 367.884 194.892C367.948 194.832 368.011 194.773 368.074 194.707C368.091 194.692 368.106 194.674 368.12 194.655C368.263 194.522 368.401 194.374 368.545 194.233C368.688 194.093 368.826 193.945 368.97 193.797C368.994 193.777 369.017 193.755 369.039 193.731C369.2 193.56 369.36 193.398 369.521 193.228C369.688 193.058 369.848 192.88 370.003 192.71C370.164 192.54 370.319 192.37 370.48 192.192C370.618 192.044 370.762 191.889 370.899 191.726C370.945 191.682 370.985 191.63 371.031 191.579C371.049 191.557 371.068 191.537 371.089 191.519C371.278 191.312 371.462 191.098 371.646 190.883C371.692 190.832 371.732 190.78 371.778 190.728C372.059 190.403 372.341 190.077 372.616 189.737C372.679 189.663 372.748 189.582 372.812 189.508C372.875 189.434 372.932 189.36 372.995 189.286C373.076 189.183 373.162 189.086 373.242 188.983C373.449 188.731 373.65 188.473 373.857 188.214L374.534 188.953L374.781 189.22H374.787L374.862 189.308L375.132 189.597L379.14 193.96L379.226 194.056L379.295 194.122L379.749 194.618L380.656 195.609L381.563 196.592L381.695 196.733L385.916 201.318L386.502 201.954L390.573 206.376L411.649 229.279L412.384 230.078L441.229 261.418L448.625 269.457L451.376 272.444C451.96 273.081 452.635 273.563 453.364 273.862C454.092 274.162 454.86 274.274 455.622 274.192C456.384 274.109 457.126 273.834 457.805 273.382C458.485 272.93 459.089 272.31 459.582 271.557C459.995 270.932 460.323 270.222 460.552 269.457C460.969 268.1 461.068 266.615 460.836 265.186C460.605 263.757 460.053 262.447 459.249 261.418ZM292.904 89.9915C298.665 81.1997 306.24 74.6862 314.754 71.2034C323.267 67.7206 332.373 67.4105 341.017 70.3091C349.662 73.2077 357.494 79.1966 363.608 87.584C369.721 95.9714 373.868 106.415 375.568 117.708C375.643 118.204 375.712 118.692 375.775 119.188C376.01 120.955 376.183 122.745 376.286 124.534C376.315 125.03 376.343 125.518 376.361 126.013C376.412 127.123 376.435 128.239 376.435 129.348C376.438 136.077 375.573 142.76 373.874 149.123V149.13C371.975 156.265 369.06 162.881 365.277 168.639C365.197 168.757 365.117 168.883 365.03 169.001C364.272 170.155 363.474 171.264 362.653 172.322C362.647 172.329 362.641 172.344 362.636 172.351C362.354 172.714 362.067 173.083 361.78 173.424C361.194 174.156 360.597 174.851 359.988 175.516C359.075 176.544 358.139 177.508 357.18 178.408C356.859 178.711 356.537 179.007 356.21 179.303C355.888 179.599 355.561 179.88 355.234 180.161C354.579 180.723 353.913 181.262 353.241 181.773C352.908 182.031 352.563 182.283 352.224 182.527C351.886 182.778 351.541 183.015 351.197 183.244C350.852 183.481 350.507 183.71 350.157 183.932C349.462 184.383 348.762 184.805 348.05 185.197C347.694 185.404 347.338 185.596 346.981 185.773C346.758 185.892 346.539 186.01 346.315 186.114C346.228 186.166 346.138 186.21 346.045 186.247C345.925 186.313 345.804 186.372 345.684 186.424C345.644 186.447 345.604 186.467 345.563 186.483C345.316 186.609 345.075 186.72 344.822 186.831C344.46 187.001 344.099 187.156 343.731 187.304C343.364 187.46 343.002 187.607 342.634 187.741C342.267 187.889 341.894 188.022 341.526 188.147C341.153 188.28 340.785 188.406 340.412 188.517C340.016 188.65 339.62 188.769 339.217 188.879C338.867 188.983 338.523 189.072 338.172 189.153C337.845 189.242 337.512 189.316 337.185 189.39C336.725 189.493 336.266 189.589 335.801 189.671C335.548 189.723 335.301 189.767 335.048 189.796C334.939 189.819 334.836 189.833 334.733 189.848C334.411 189.907 334.089 189.952 333.773 189.989C333.687 189.996 333.607 190.011 333.527 190.018C333.176 190.063 332.82 190.1 332.47 190.137C331.718 190.203 330.971 190.248 330.219 190.27C329.84 190.277 329.455 190.285 329.076 190.285C328.697 190.285 328.318 190.277 327.939 190.262C327.939 190.262 327.939 190.27 327.933 190.262C327.928 190.27 327.928 190.27 327.922 190.262L327.919 190.265L327.916 190.265L327.913 190.265L327.91 190.262C327.892 190.27 327.872 190.27 327.853 190.262C327.583 190.262 327.313 190.248 327.049 190.225C326.854 190.218 326.653 190.211 326.452 190.188C326.182 190.174 325.912 190.151 325.642 190.122C325.556 190.122 325.47 190.107 325.384 190.1C325.343 190.098 325.303 190.094 325.263 190.085C324.987 190.055 324.706 190.026 324.43 189.989C324.293 189.974 324.149 189.959 324.011 189.937C323.592 189.878 323.173 189.811 322.759 189.737C322.288 189.663 321.818 189.575 321.352 189.464C321.134 189.427 320.922 189.375 320.709 189.323C320.428 189.264 320.147 189.197 319.865 189.124C319.572 189.05 319.279 188.976 318.986 188.887C318.751 188.82 318.51 188.754 318.274 188.68C318.159 188.65 318.045 188.613 317.936 188.576C317.333 188.391 316.735 188.192 316.144 187.97C315.771 187.837 315.397 187.696 315.03 187.548C314.524 187.349 314.025 187.134 313.525 186.905C313.33 186.824 313.14 186.735 312.945 186.639C312.75 186.557 312.56 186.461 312.365 186.365C312.187 186.284 312.009 186.195 311.837 186.106C311.55 185.966 311.268 185.818 310.987 185.67C310.407 185.367 309.838 185.049 309.27 184.709C308.948 184.509 308.627 184.317 308.311 184.117C307.065 183.341 305.838 182.478 304.63 181.529C304.331 181.299 304.033 181.055 303.734 180.811C303.361 180.516 302.999 180.205 302.637 179.894C302.436 179.717 302.241 179.547 302.046 179.369C301.684 179.044 301.328 178.711 300.978 178.378C300.794 178.208 300.61 178.031 300.432 177.853C299.795 177.232 299.169 176.581 298.554 175.916C298.261 175.598 297.969 175.272 297.681 174.94C297.561 174.807 297.44 174.666 297.32 174.526C297.182 174.363 297.044 174.207 296.912 174.037L296.9 174.023C296.7 173.793 296.498 173.549 296.303 173.305C295.999 172.936 295.7 172.558 295.413 172.174C295.115 171.797 294.827 171.405 294.546 171.02C294.259 170.636 293.983 170.244 293.713 169.844C293.438 169.452 293.168 169.053 292.904 168.646C292.645 168.262 292.393 167.862 292.151 167.471C291.566 166.539 291.007 165.59 290.474 164.623C290.228 164.18 289.992 163.736 289.762 163.285C289.516 162.826 289.28 162.361 289.056 161.895C288.821 161.429 288.597 160.955 288.378 160.475C288.373 160.458 288.365 160.443 288.355 160.43C287.925 159.491 287.511 158.545 287.127 157.583C286.73 156.607 286.357 155.621 286.007 154.625C285.829 154.13 285.657 153.627 285.496 153.124C285.163 152.111 284.852 151.098 284.565 150.07C284.422 149.574 284.29 149.079 284.158 148.576C284.153 148.543 284.146 148.51 284.135 148.48C283.87 147.459 283.629 146.431 283.417 145.396C283.411 145.381 283.411 145.367 283.405 145.352C283.296 144.841 283.193 144.331 283.101 143.813C283.009 143.362 282.929 142.911 282.854 142.453C282.768 141.942 282.682 141.432 282.607 140.915C282.567 140.648 282.527 140.382 282.492 140.116C282.458 139.894 282.429 139.665 282.4 139.443C282.372 139.221 282.343 138.992 282.314 138.763C282.257 138.311 282.205 137.86 282.159 137.409C282.102 136.877 282.056 136.344 282.01 135.805C281.958 135.161 281.912 134.518 281.872 133.867C281.843 133.431 281.826 132.987 281.809 132.543C281.792 132.137 281.775 131.73 281.769 131.323C281.763 131.302 281.763 131.278 281.769 131.257L281.767 131.253L281.766 131.249L281.767 131.245L281.769 131.242C281.763 131.234 281.763 131.234 281.769 131.227L281.767 131.224L281.766 131.22L281.767 131.216L281.769 131.212C281.763 131.049 281.757 130.887 281.757 130.724C281.746 130.243 281.74 129.763 281.74 129.282C281.74 128.846 281.746 128.417 281.752 127.981C281.763 127.374 281.78 126.768 281.803 126.161C281.803 126.028 281.815 125.902 281.821 125.769C281.826 125.636 281.832 125.51 281.838 125.377C281.849 125.096 281.866 124.815 281.889 124.534C281.888 124.482 281.89 124.43 281.895 124.379C281.912 124.061 281.935 123.743 281.958 123.425C282.004 122.789 282.062 122.146 282.125 121.51C282.159 121.192 282.188 120.874 282.228 120.556C282.251 120.334 282.28 120.105 282.309 119.875C282.332 119.646 282.36 119.417 282.395 119.188C282.435 118.884 282.475 118.574 282.521 118.263C282.544 118.078 282.573 117.893 282.602 117.708C282.711 116.969 282.831 116.23 282.963 115.49C283.095 114.743 283.245 114.004 283.405 113.264C283.56 112.517 283.733 111.77 283.916 111.023C284.003 110.646 284.095 110.277 284.198 109.907C284.387 109.16 284.588 108.42 284.812 107.688C284.916 107.326 285.025 106.956 285.145 106.594C285.375 105.862 285.616 105.129 285.863 104.412C285.989 104.05 286.116 103.687 286.254 103.325C286.512 102.608 286.782 101.89 287.075 101.188C287.356 100.471 287.661 99.768 287.971 99.0729C288.281 98.3777 288.602 97.6826 288.941 96.9948C289.096 96.6546 289.268 96.3071 289.446 95.9743C289.791 95.294 290.153 94.6136 290.52 93.948C291.261 92.602 292.06 91.2782 292.904 89.9915ZM281.884 124.534C281.866 124.815 281.849 125.096 281.838 125.377C281.849 125.096 281.866 124.815 281.889 124.534C281.888 124.482 281.89 124.43 281.895 124.379C281.889 124.431 281.889 124.482 281.884 124.534ZM282.596 117.708C282.573 117.893 282.544 118.078 282.521 118.263C282.544 118.078 282.573 117.893 282.602 117.708H282.596ZM296.9 174.023V174.03C296.9 174.037 296.906 174.037 296.912 174.037L296.9 174.023Z" fill="#96C6DA"/>
<path opacity="0.3" d="M298.555 175.915C289.472 166.044 283.603 152.135 282.115 136.95C280.627 121.765 283.627 106.415 290.52 93.947C289.615 95.1211 288.74 96.3507 287.895 97.6358C283.885 103.755 280.851 110.832 278.965 118.462C277.079 126.092 276.378 134.126 276.903 142.104C277.428 150.083 279.168 157.85 282.024 164.962C284.88 172.075 288.795 178.393 293.547 183.557C303.145 193.986 315.566 199.078 328.079 197.713C340.591 196.347 352.17 188.637 360.268 176.278C361.111 174.991 361.905 173.673 362.65 172.325C354.266 183.173 343.021 189.564 331.147 190.229C319.273 190.894 307.639 185.785 298.555 175.915Z" fill="black"/>
</g>
<defs>
<clipPath id="clip0_905_34">
<rect width="522" height="335" fill="white"/>
</clipPath>
</defs>
</svg>
