<svg width="624" height="330" viewBox="0 0 624 330" fill="none" xmlns="http://www.w3.org/2000/svg">
<path d="M301.815 297.359H306.993C308.168 297.359 309.16 297.538 309.969 297.896C310.785 298.255 311.405 298.785 311.827 299.486C312.257 300.181 312.472 301.037 312.472 302.054C312.472 302.77 312.325 303.425 312.031 304.02C311.745 304.607 311.329 305.108 310.785 305.523C310.248 305.932 309.604 306.236 308.852 306.437L308.271 306.662H303.405L303.384 304.976H307.058C307.802 304.976 308.422 304.847 308.916 304.589C309.41 304.324 309.783 303.969 310.033 303.525C310.284 303.081 310.409 302.591 310.409 302.054C310.409 301.452 310.291 300.926 310.055 300.475C309.818 300.023 309.446 299.676 308.938 299.433C308.436 299.182 307.788 299.057 306.993 299.057H303.889V313H301.815V297.359ZM310.957 313L307.154 305.91L309.313 305.899L313.17 312.871V313H310.957ZM319.895 313.215C319.085 313.215 318.351 313.079 317.692 312.807C317.041 312.527 316.479 312.137 316.006 311.636C315.54 311.134 315.182 310.54 314.932 309.853C314.681 309.165 314.556 308.413 314.556 307.597V307.146C314.556 306.2 314.695 305.359 314.975 304.621C315.254 303.876 315.633 303.246 316.113 302.73C316.593 302.215 317.137 301.825 317.746 301.56C318.355 301.295 318.985 301.162 319.637 301.162C320.467 301.162 321.184 301.305 321.785 301.592C322.394 301.878 322.892 302.279 323.278 302.795C323.665 303.303 323.951 303.905 324.138 304.6C324.324 305.287 324.417 306.039 324.417 306.855V307.747H315.737V306.125H322.43V305.975C322.401 305.459 322.294 304.958 322.107 304.471C321.928 303.984 321.642 303.583 321.248 303.268C320.854 302.952 320.317 302.795 319.637 302.795C319.186 302.795 318.77 302.892 318.391 303.085C318.011 303.271 317.685 303.55 317.413 303.923C317.141 304.295 316.93 304.75 316.779 305.287C316.629 305.824 316.554 306.444 316.554 307.146V307.597C316.554 308.148 316.629 308.667 316.779 309.154C316.937 309.634 317.162 310.057 317.456 310.422C317.757 310.787 318.118 311.074 318.541 311.281C318.971 311.489 319.458 311.593 320.002 311.593C320.704 311.593 321.298 311.45 321.785 311.163C322.272 310.877 322.698 310.493 323.063 310.014L324.267 310.97C324.016 311.349 323.697 311.711 323.311 312.055C322.924 312.398 322.448 312.678 321.882 312.893C321.323 313.107 320.661 313.215 319.895 313.215ZM333.505 309.917C333.505 309.631 333.44 309.366 333.312 309.122C333.19 308.871 332.936 308.646 332.549 308.445C332.169 308.238 331.596 308.059 330.83 307.908C330.186 307.772 329.602 307.611 329.079 307.425C328.563 307.239 328.123 307.013 327.758 306.748C327.4 306.483 327.124 306.172 326.931 305.813C326.737 305.455 326.641 305.036 326.641 304.557C326.641 304.098 326.741 303.665 326.941 303.257C327.149 302.849 327.439 302.487 327.812 302.172C328.191 301.857 328.646 301.61 329.176 301.431C329.706 301.252 330.297 301.162 330.948 301.162C331.879 301.162 332.674 301.327 333.333 301.656C333.992 301.986 334.497 302.426 334.848 302.978C335.199 303.522 335.374 304.127 335.374 304.793H333.387C333.387 304.471 333.29 304.159 333.097 303.858C332.91 303.55 332.635 303.296 332.27 303.096C331.911 302.895 331.471 302.795 330.948 302.795C330.397 302.795 329.949 302.881 329.605 303.053C329.269 303.217 329.022 303.429 328.864 303.687C328.714 303.944 328.639 304.216 328.639 304.503C328.639 304.718 328.674 304.911 328.746 305.083C328.825 305.248 328.961 305.402 329.154 305.545C329.348 305.681 329.62 305.81 329.971 305.932C330.322 306.053 330.769 306.175 331.313 306.297C332.266 306.512 333.05 306.77 333.666 307.07C334.282 307.371 334.74 307.74 335.041 308.177C335.342 308.614 335.492 309.144 335.492 309.767C335.492 310.275 335.385 310.741 335.17 311.163C334.962 311.586 334.658 311.951 334.257 312.259C333.863 312.56 333.39 312.796 332.839 312.968C332.295 313.132 331.682 313.215 331.002 313.215C329.978 313.215 329.111 313.032 328.402 312.667C327.693 312.302 327.156 311.829 326.791 311.249C326.426 310.669 326.243 310.057 326.243 309.412H328.241C328.27 309.956 328.427 310.39 328.714 310.712C329 311.027 329.351 311.253 329.767 311.389C330.182 311.518 330.594 311.582 331.002 311.582C331.546 311.582 332.001 311.51 332.366 311.367C332.739 311.224 333.021 311.027 333.215 310.776C333.408 310.526 333.505 310.239 333.505 309.917ZM342.926 313.215C342.117 313.215 341.382 313.079 340.724 312.807C340.072 312.527 339.51 312.137 339.037 311.636C338.572 311.134 338.214 310.54 337.963 309.853C337.712 309.165 337.587 308.413 337.587 307.597V307.146C337.587 306.2 337.727 305.359 338.006 304.621C338.285 303.876 338.665 303.246 339.145 302.73C339.624 302.215 340.169 301.825 340.777 301.56C341.386 301.295 342.016 301.162 342.668 301.162C343.499 301.162 344.215 301.305 344.816 301.592C345.425 301.878 345.923 302.279 346.31 302.795C346.696 303.303 346.983 303.905 347.169 304.6C347.355 305.287 347.448 306.039 347.448 306.855V307.747H338.769V306.125H345.461V305.975C345.432 305.459 345.325 304.958 345.139 304.471C344.96 303.984 344.673 303.583 344.279 303.268C343.885 302.952 343.348 302.795 342.668 302.795C342.217 302.795 341.801 302.892 341.422 303.085C341.042 303.271 340.716 303.55 340.444 303.923C340.172 304.295 339.961 304.75 339.811 305.287C339.66 305.824 339.585 306.444 339.585 307.146V307.597C339.585 308.148 339.66 308.667 339.811 309.154C339.968 309.634 340.194 310.057 340.487 310.422C340.788 310.787 341.15 311.074 341.572 311.281C342.002 311.489 342.489 311.593 343.033 311.593C343.735 311.593 344.329 311.45 344.816 311.163C345.303 310.877 345.729 310.493 346.095 310.014L347.298 310.97C347.047 311.349 346.729 311.711 346.342 312.055C345.955 312.398 345.479 312.678 344.913 312.893C344.354 313.107 343.692 313.215 342.926 313.215ZM351.756 303.203V313H349.769V301.377H351.702L351.756 303.203ZM355.387 301.312L355.376 303.16C355.211 303.124 355.054 303.103 354.903 303.096C354.76 303.081 354.595 303.074 354.409 303.074C353.951 303.074 353.546 303.146 353.195 303.289C352.844 303.432 352.547 303.633 352.304 303.891C352.06 304.148 351.867 304.456 351.724 304.814C351.588 305.165 351.498 305.552 351.455 305.975L350.896 306.297C350.896 305.595 350.965 304.936 351.101 304.32C351.244 303.704 351.462 303.16 351.756 302.688C352.049 302.208 352.422 301.835 352.873 301.57C353.331 301.298 353.876 301.162 354.506 301.162C354.649 301.162 354.814 301.18 355 301.216C355.186 301.244 355.315 301.277 355.387 301.312ZM360.951 311.206L364.131 301.377H366.161L361.982 313H360.65L360.951 311.206ZM358.298 301.377L361.574 311.26L361.8 313H360.468L356.257 301.377H358.298ZM372.746 313.215C371.937 313.215 371.203 313.079 370.544 312.807C369.892 312.527 369.33 312.137 368.857 311.636C368.392 311.134 368.034 310.54 367.783 309.853C367.533 309.165 367.407 308.413 367.407 307.597V307.146C367.407 306.2 367.547 305.359 367.826 304.621C368.105 303.876 368.485 303.246 368.965 302.73C369.445 302.215 369.989 301.825 370.598 301.56C371.206 301.295 371.837 301.162 372.488 301.162C373.319 301.162 374.035 301.305 374.637 301.592C375.245 301.878 375.743 302.279 376.13 302.795C376.517 303.303 376.803 303.905 376.989 304.6C377.175 305.287 377.269 306.039 377.269 306.855V307.747H368.589V306.125H375.281V305.975C375.253 305.459 375.145 304.958 374.959 304.471C374.78 303.984 374.493 303.583 374.1 303.268C373.706 302.952 373.169 302.795 372.488 302.795C372.037 302.795 371.622 302.892 371.242 303.085C370.863 303.271 370.537 303.55 370.265 303.923C369.993 304.295 369.781 304.75 369.631 305.287C369.48 305.824 369.405 306.444 369.405 307.146V307.597C369.405 308.148 369.48 308.667 369.631 309.154C369.788 309.634 370.014 310.057 370.308 310.422C370.608 310.787 370.97 311.074 371.393 311.281C371.822 311.489 372.309 311.593 372.854 311.593C373.555 311.593 374.15 311.45 374.637 311.163C375.124 310.877 375.55 310.493 375.915 310.014L377.118 310.97C376.868 311.349 376.549 311.711 376.162 312.055C375.775 312.398 375.299 312.678 374.733 312.893C374.175 313.107 373.512 313.215 372.746 313.215ZM386.066 297.359L390.127 305.212L394.198 297.359H396.551L391.158 307.156V313H389.085V307.156L383.692 297.359H386.066ZM397.023 307.317V307.07C397.023 306.232 397.145 305.455 397.389 304.739C397.632 304.016 397.983 303.389 398.441 302.859C398.9 302.322 399.455 301.907 400.106 301.613C400.758 301.312 401.489 301.162 402.298 301.162C403.114 301.162 403.848 301.312 404.5 301.613C405.159 301.907 405.717 302.322 406.176 302.859C406.641 303.389 406.996 304.016 407.239 304.739C407.483 305.455 407.604 306.232 407.604 307.07V307.317C407.604 308.155 407.483 308.932 407.239 309.648C406.996 310.365 406.641 310.991 406.176 311.528C405.717 312.058 405.162 312.474 404.511 312.774C403.866 313.068 403.136 313.215 402.319 313.215C401.503 313.215 400.769 313.068 400.117 312.774C399.465 312.474 398.907 312.058 398.441 311.528C397.983 310.991 397.632 310.365 397.389 309.648C397.145 308.932 397.023 308.155 397.023 307.317ZM399.011 307.07V307.317C399.011 307.897 399.079 308.445 399.215 308.961C399.351 309.469 399.555 309.921 399.827 310.314C400.106 310.708 400.454 311.02 400.869 311.249C401.285 311.471 401.768 311.582 402.319 311.582C402.864 311.582 403.34 311.471 403.748 311.249C404.163 311.02 404.507 310.708 404.779 310.314C405.051 309.921 405.256 309.469 405.392 308.961C405.535 308.445 405.606 307.897 405.606 307.317V307.07C405.606 306.497 405.535 305.957 405.392 305.448C405.256 304.933 405.048 304.478 404.769 304.084C404.496 303.683 404.153 303.368 403.737 303.139C403.329 302.91 402.849 302.795 402.298 302.795C401.754 302.795 401.274 302.91 400.858 303.139C400.45 303.368 400.106 303.683 399.827 304.084C399.555 304.478 399.351 304.933 399.215 305.448C399.079 305.957 399.011 306.497 399.011 307.07ZM417.208 310.314V301.377H419.206V313H417.305L417.208 310.314ZM417.584 307.865L418.411 307.844C418.411 308.617 418.329 309.333 418.164 309.992C418.007 310.644 417.749 311.21 417.391 311.689C417.033 312.169 416.563 312.545 415.983 312.817C415.403 313.082 414.698 313.215 413.867 313.215C413.301 313.215 412.782 313.132 412.31 312.968C411.844 312.803 411.443 312.549 411.106 312.205C410.77 311.861 410.508 311.414 410.322 310.862C410.143 310.311 410.054 309.648 410.054 308.875V301.377H412.041V308.896C412.041 309.419 412.098 309.853 412.213 310.196C412.335 310.533 412.496 310.801 412.696 311.002C412.904 311.195 413.133 311.331 413.384 311.41C413.642 311.489 413.907 311.528 414.179 311.528C415.024 311.528 415.693 311.367 416.188 311.045C416.682 310.715 417.036 310.275 417.251 309.724C417.473 309.165 417.584 308.546 417.584 307.865ZM424.223 303.203V313H422.235V301.377H424.169L424.223 303.203ZM427.854 301.312L427.843 303.16C427.678 303.124 427.521 303.103 427.37 303.096C427.227 303.081 427.062 303.074 426.876 303.074C426.418 303.074 426.013 303.146 425.662 303.289C425.311 303.432 425.014 303.633 424.771 303.891C424.527 304.148 424.334 304.456 424.19 304.814C424.054 305.165 423.965 305.552 423.922 305.975L423.363 306.297C423.363 305.595 423.431 304.936 423.567 304.32C423.711 303.704 423.929 303.16 424.223 302.688C424.516 302.208 424.889 301.835 425.34 301.57C425.798 301.298 426.342 301.162 426.973 301.162C427.116 301.162 427.281 301.18 427.467 301.216C427.653 301.244 427.782 301.277 427.854 301.312ZM439.681 313H436.415L436.437 311.313H439.681C440.798 311.313 441.729 311.081 442.474 310.615C443.218 310.143 443.777 309.484 444.149 308.639C444.529 307.786 444.719 306.791 444.719 305.652V304.696C444.719 303.801 444.611 303.006 444.396 302.312C444.182 301.61 443.867 301.019 443.451 300.539C443.036 300.052 442.527 299.683 441.926 299.433C441.331 299.182 440.647 299.057 439.874 299.057H436.351V297.359H439.874C440.898 297.359 441.833 297.531 442.678 297.875C443.523 298.212 444.25 298.702 444.858 299.347C445.474 299.984 445.947 300.757 446.276 301.667C446.606 302.569 446.771 303.586 446.771 304.718V305.652C446.771 306.784 446.606 307.804 446.276 308.714C445.947 309.616 445.471 310.386 444.848 311.023C444.232 311.661 443.487 312.151 442.613 312.495C441.747 312.832 440.769 313 439.681 313ZM437.521 297.359V313H435.448V297.359H437.521ZM451.572 303.203V313H449.585V301.377H451.519L451.572 303.203ZM455.203 301.312L455.192 303.16C455.028 303.124 454.87 303.103 454.72 303.096C454.576 303.081 454.412 303.074 454.226 303.074C453.767 303.074 453.363 303.146 453.012 303.289C452.661 303.432 452.364 303.633 452.12 303.891C451.877 304.148 451.683 304.456 451.54 304.814C451.404 305.165 451.314 305.552 451.271 305.975L450.713 306.297C450.713 305.595 450.781 304.936 450.917 304.32C451.06 303.704 451.279 303.16 451.572 302.688C451.866 302.208 452.238 301.835 452.689 301.57C453.148 301.298 453.692 301.162 454.322 301.162C454.465 301.162 454.63 301.18 454.816 301.216C455.003 301.244 455.132 301.277 455.203 301.312ZM461.648 313.215C460.839 313.215 460.105 313.079 459.446 312.807C458.795 312.527 458.232 312.137 457.76 311.636C457.294 311.134 456.936 310.54 456.686 309.853C456.435 309.165 456.31 308.413 456.31 307.597V307.146C456.31 306.2 456.449 305.359 456.729 304.621C457.008 303.876 457.387 303.246 457.867 302.73C458.347 302.215 458.891 301.825 459.5 301.56C460.109 301.295 460.739 301.162 461.391 301.162C462.221 301.162 462.938 301.305 463.539 301.592C464.148 301.878 464.646 302.279 465.032 302.795C465.419 303.303 465.705 303.905 465.892 304.6C466.078 305.287 466.171 306.039 466.171 306.855V307.747H457.491V306.125H464.184V305.975C464.155 305.459 464.048 304.958 463.861 304.471C463.682 303.984 463.396 303.583 463.002 303.268C462.608 302.952 462.071 302.795 461.391 302.795C460.939 302.795 460.524 302.892 460.145 303.085C459.765 303.271 459.439 303.55 459.167 303.923C458.895 304.295 458.684 304.75 458.533 305.287C458.383 305.824 458.308 306.444 458.308 307.146V307.597C458.308 308.148 458.383 308.667 458.533 309.154C458.691 309.634 458.916 310.057 459.21 310.422C459.511 310.787 459.872 311.074 460.295 311.281C460.725 311.489 461.212 311.593 461.756 311.593C462.458 311.593 463.052 311.45 463.539 311.163C464.026 310.877 464.452 310.493 464.817 310.014L466.021 310.97C465.77 311.349 465.451 311.711 465.064 312.055C464.678 312.398 464.201 312.678 463.636 312.893C463.077 313.107 462.415 313.215 461.648 313.215ZM475.345 311.013V305.029C475.345 304.571 475.252 304.174 475.065 303.837C474.886 303.493 474.614 303.228 474.249 303.042C473.884 302.856 473.433 302.763 472.896 302.763C472.394 302.763 471.954 302.849 471.574 303.021C471.202 303.192 470.908 303.418 470.693 303.697C470.486 303.977 470.382 304.277 470.382 304.6H468.395C468.395 304.184 468.502 303.772 468.717 303.364C468.932 302.956 469.24 302.587 469.641 302.258C470.049 301.921 470.536 301.656 471.102 301.463C471.674 301.262 472.312 301.162 473.014 301.162C473.859 301.162 474.604 301.305 475.248 301.592C475.9 301.878 476.408 302.312 476.773 302.892C477.146 303.465 477.332 304.184 477.332 305.051V310.465C477.332 310.852 477.364 311.263 477.429 311.7C477.5 312.137 477.604 312.513 477.74 312.828V313H475.667C475.567 312.771 475.488 312.466 475.431 312.087C475.373 311.7 475.345 311.342 475.345 311.013ZM475.688 305.953L475.71 307.35H473.701C473.135 307.35 472.631 307.396 472.187 307.489C471.743 307.575 471.37 307.708 471.069 307.887C470.769 308.066 470.539 308.291 470.382 308.563C470.224 308.828 470.146 309.14 470.146 309.498C470.146 309.863 470.228 310.196 470.393 310.497C470.557 310.798 470.804 311.038 471.134 311.217C471.47 311.389 471.882 311.475 472.369 311.475C472.978 311.475 473.515 311.346 473.98 311.088C474.446 310.83 474.815 310.515 475.087 310.143C475.366 309.77 475.517 309.409 475.538 309.058L476.387 310.014C476.337 310.314 476.201 310.647 475.979 311.013C475.757 311.378 475.459 311.729 475.087 312.065C474.722 312.395 474.285 312.671 473.776 312.893C473.275 313.107 472.709 313.215 472.079 313.215C471.291 313.215 470.6 313.061 470.006 312.753C469.419 312.445 468.96 312.033 468.631 311.518C468.309 310.995 468.147 310.411 468.147 309.767C468.147 309.144 468.269 308.596 468.513 308.123C468.756 307.643 469.107 307.246 469.565 306.931C470.024 306.608 470.575 306.365 471.22 306.2C471.864 306.035 472.584 305.953 473.379 305.953H475.688ZM482.435 303.687V313H480.437V301.377H482.327L482.435 303.687ZM482.026 306.748L481.103 306.716C481.11 305.921 481.214 305.187 481.414 304.514C481.615 303.833 481.912 303.243 482.306 302.741C482.7 302.24 483.19 301.853 483.777 301.581C484.365 301.302 485.045 301.162 485.818 301.162C486.363 301.162 486.864 301.241 487.322 301.398C487.781 301.549 488.178 301.789 488.515 302.118C488.851 302.448 489.113 302.87 489.299 303.386C489.485 303.901 489.578 304.524 489.578 305.255V313H487.591V305.352C487.591 304.743 487.487 304.256 487.279 303.891C487.079 303.525 486.792 303.26 486.42 303.096C486.048 302.924 485.611 302.838 485.109 302.838C484.522 302.838 484.032 302.942 483.638 303.149C483.244 303.357 482.929 303.644 482.692 304.009C482.456 304.374 482.284 304.793 482.177 305.266C482.076 305.731 482.026 306.225 482.026 306.748ZM489.557 305.652L488.225 306.061C488.232 305.423 488.336 304.811 488.536 304.224C488.744 303.636 489.041 303.114 489.428 302.655C489.822 302.197 490.305 301.835 490.878 301.57C491.451 301.298 492.106 301.162 492.844 301.162C493.467 301.162 494.018 301.244 494.498 301.409C494.985 301.574 495.393 301.828 495.723 302.172C496.059 302.508 496.313 302.942 496.485 303.472C496.657 304.002 496.743 304.632 496.743 305.362V313H494.745V305.341C494.745 304.689 494.641 304.184 494.434 303.826C494.233 303.461 493.947 303.207 493.574 303.063C493.209 302.913 492.772 302.838 492.264 302.838C491.827 302.838 491.44 302.913 491.104 303.063C490.767 303.214 490.484 303.422 490.255 303.687C490.026 303.944 489.85 304.242 489.729 304.578C489.614 304.915 489.557 305.273 489.557 305.652ZM507.582 297.359V313H505.509V297.359H507.582ZM514.135 304.396V306.093H507.131V304.396H514.135ZM515.198 297.359V299.057H507.131V297.359H515.198ZM519.527 296.5V313H517.529V296.5H519.527ZM529.571 311.013V305.029C529.571 304.571 529.478 304.174 529.292 303.837C529.113 303.493 528.841 303.228 528.476 303.042C528.11 302.856 527.659 302.763 527.122 302.763C526.621 302.763 526.18 302.849 525.801 303.021C525.428 303.192 525.135 303.418 524.92 303.697C524.712 303.977 524.608 304.277 524.608 304.6H522.621C522.621 304.184 522.729 303.772 522.943 303.364C523.158 302.956 523.466 302.587 523.867 302.258C524.275 301.921 524.762 301.656 525.328 301.463C525.901 301.262 526.538 301.162 527.24 301.162C528.085 301.162 528.83 301.305 529.475 301.592C530.126 301.878 530.635 302.312 531 302.892C531.372 303.465 531.559 304.184 531.559 305.051V310.465C531.559 310.852 531.591 311.263 531.655 311.7C531.727 312.137 531.831 312.513 531.967 312.828V313H529.894C529.793 312.771 529.715 312.466 529.657 312.087C529.6 311.7 529.571 311.342 529.571 311.013ZM529.915 305.953L529.937 307.35H527.928C527.362 307.35 526.857 307.396 526.413 307.489C525.969 307.575 525.597 307.708 525.296 307.887C524.995 308.066 524.766 308.291 524.608 308.563C524.451 308.828 524.372 309.14 524.372 309.498C524.372 309.863 524.454 310.196 524.619 310.497C524.784 310.798 525.031 311.038 525.36 311.217C525.697 311.389 526.109 311.475 526.596 311.475C527.204 311.475 527.742 311.346 528.207 311.088C528.673 310.83 529.041 310.515 529.313 310.143C529.593 309.77 529.743 309.409 529.765 309.058L530.613 310.014C530.563 310.314 530.427 310.647 530.205 311.013C529.983 311.378 529.686 311.729 529.313 312.065C528.948 312.395 528.511 312.671 528.003 312.893C527.502 313.107 526.936 313.215 526.306 313.215C525.518 313.215 524.827 313.061 524.232 312.753C523.645 312.445 523.187 312.033 522.857 311.518C522.535 310.995 522.374 310.411 522.374 309.767C522.374 309.144 522.496 308.596 522.739 308.123C522.983 307.643 523.334 307.246 523.792 306.931C524.25 306.608 524.802 306.365 525.446 306.2C526.091 306.035 526.811 305.953 527.605 305.953H529.915ZM539.551 301.377V302.902H533.267V301.377H539.551ZM535.394 298.552H537.381V310.121C537.381 310.515 537.442 310.812 537.563 311.013C537.685 311.213 537.843 311.346 538.036 311.41C538.229 311.475 538.437 311.507 538.659 311.507C538.824 311.507 538.996 311.493 539.175 311.464C539.361 311.428 539.501 311.399 539.594 311.378L539.604 313C539.447 313.05 539.239 313.097 538.981 313.14C538.731 313.19 538.426 313.215 538.068 313.215C537.581 313.215 537.134 313.118 536.726 312.925C536.317 312.731 535.992 312.409 535.748 311.958C535.512 311.5 535.394 310.884 535.394 310.11V298.552ZM552.989 297.359V313H550.948V297.359H552.989ZM558.017 297.359V299.057H545.932V297.359H558.017ZM558.436 307.317V307.07C558.436 306.232 558.557 305.455 558.801 304.739C559.044 304.016 559.395 303.389 559.854 302.859C560.312 302.322 560.867 301.907 561.519 301.613C562.17 301.312 562.901 301.162 563.71 301.162C564.526 301.162 565.26 301.312 565.912 301.613C566.571 301.907 567.13 302.322 567.588 302.859C568.053 303.389 568.408 304.016 568.651 304.739C568.895 305.455 569.017 306.232 569.017 307.07V307.317C569.017 308.155 568.895 308.932 568.651 309.648C568.408 310.365 568.053 310.991 567.588 311.528C567.13 312.058 566.575 312.474 565.923 312.774C565.278 313.068 564.548 313.215 563.731 313.215C562.915 313.215 562.181 313.068 561.529 312.774C560.878 312.474 560.319 312.058 559.854 311.528C559.395 310.991 559.044 310.365 558.801 309.648C558.557 308.932 558.436 308.155 558.436 307.317ZM560.423 307.07V307.317C560.423 307.897 560.491 308.445 560.627 308.961C560.763 309.469 560.967 309.921 561.239 310.314C561.519 310.708 561.866 311.02 562.281 311.249C562.697 311.471 563.18 311.582 563.731 311.582C564.276 311.582 564.752 311.471 565.16 311.249C565.576 311.02 565.919 310.708 566.191 310.314C566.464 309.921 566.668 309.469 566.804 308.961C566.947 308.445 567.019 307.897 567.019 307.317V307.07C567.019 306.497 566.947 305.957 566.804 305.448C566.668 304.933 566.46 304.478 566.181 304.084C565.909 303.683 565.565 303.368 565.149 303.139C564.741 302.91 564.261 302.795 563.71 302.795C563.166 302.795 562.686 302.91 562.271 303.139C561.862 303.368 561.519 303.683 561.239 304.084C560.967 304.478 560.763 304.933 560.627 305.448C560.491 305.957 560.423 306.497 560.423 307.07ZM578.835 310.744V296.5H580.833V313H579.007L578.835 310.744ZM571.015 307.317V307.092C571.015 306.204 571.122 305.398 571.337 304.675C571.559 303.944 571.87 303.318 572.271 302.795C572.68 302.272 573.163 301.871 573.722 301.592C574.287 301.305 574.918 301.162 575.612 301.162C576.343 301.162 576.98 301.291 577.524 301.549C578.076 301.799 578.541 302.168 578.921 302.655C579.308 303.135 579.612 303.715 579.834 304.396C580.056 305.076 580.21 305.846 580.296 306.705V307.693C580.217 308.546 580.063 309.312 579.834 309.992C579.612 310.673 579.308 311.253 578.921 311.732C578.541 312.212 578.076 312.581 577.524 312.839C576.973 313.09 576.328 313.215 575.591 313.215C574.91 313.215 574.287 313.068 573.722 312.774C573.163 312.481 572.68 312.069 572.271 311.539C571.87 311.009 571.559 310.386 571.337 309.67C571.122 308.947 571.015 308.162 571.015 307.317ZM573.013 307.092V307.317C573.013 307.897 573.07 308.442 573.185 308.95C573.306 309.459 573.493 309.906 573.743 310.293C573.994 310.68 574.312 310.984 574.699 311.206C575.086 311.421 575.548 311.528 576.085 311.528C576.744 311.528 577.285 311.389 577.707 311.109C578.137 310.83 578.48 310.461 578.738 310.003C578.996 309.545 579.197 309.047 579.34 308.51V305.921C579.254 305.527 579.129 305.147 578.964 304.782C578.806 304.41 578.599 304.08 578.341 303.794C578.09 303.5 577.779 303.268 577.406 303.096C577.041 302.924 576.608 302.838 576.106 302.838C575.562 302.838 575.093 302.952 574.699 303.182C574.312 303.404 573.994 303.712 573.743 304.105C573.493 304.492 573.306 304.943 573.185 305.459C573.07 305.967 573.013 306.512 573.013 307.092ZM590.78 311.013V305.029C590.78 304.571 590.687 304.174 590.501 303.837C590.322 303.493 590.05 303.228 589.685 303.042C589.319 302.856 588.868 302.763 588.331 302.763C587.83 302.763 587.389 302.849 587.01 303.021C586.637 303.192 586.344 303.418 586.129 303.697C585.921 303.977 585.817 304.277 585.817 304.6H583.83C583.83 304.184 583.938 303.772 584.152 303.364C584.367 302.956 584.675 302.587 585.076 302.258C585.484 301.921 585.971 301.656 586.537 301.463C587.11 301.262 587.747 301.162 588.449 301.162C589.294 301.162 590.039 301.305 590.684 301.592C591.335 301.878 591.844 302.312 592.209 302.892C592.581 303.465 592.768 304.184 592.768 305.051V310.465C592.768 310.852 592.8 311.263 592.864 311.7C592.936 312.137 593.04 312.513 593.176 312.828V313H591.103C591.002 312.771 590.924 312.466 590.866 312.087C590.809 311.7 590.78 311.342 590.78 311.013ZM591.124 305.953L591.146 307.35H589.137C588.571 307.35 588.066 307.396 587.622 307.489C587.178 307.575 586.806 307.708 586.505 307.887C586.204 308.066 585.975 308.291 585.817 308.563C585.66 308.828 585.581 309.14 585.581 309.498C585.581 309.863 585.663 310.196 585.828 310.497C585.993 310.798 586.24 311.038 586.569 311.217C586.906 311.389 587.318 311.475 587.805 311.475C588.413 311.475 588.951 311.346 589.416 311.088C589.882 310.83 590.25 310.515 590.522 310.143C590.802 309.77 590.952 309.409 590.974 309.058L591.822 310.014C591.772 310.314 591.636 310.647 591.414 311.013C591.192 311.378 590.895 311.729 590.522 312.065C590.157 312.395 589.72 312.671 589.212 312.893C588.711 313.107 588.145 313.215 587.515 313.215C586.727 313.215 586.036 313.061 585.441 312.753C584.854 312.445 584.396 312.033 584.066 311.518C583.744 310.995 583.583 310.411 583.583 309.767C583.583 309.144 583.705 308.596 583.948 308.123C584.192 307.643 584.543 307.246 585.001 306.931C585.459 306.608 586.011 306.365 586.655 306.2C587.3 306.035 588.02 305.953 588.814 305.953H591.124ZM598.987 311.797L602.221 301.377H604.348L599.686 314.794C599.578 315.08 599.435 315.388 599.256 315.718C599.084 316.054 598.862 316.373 598.59 316.674C598.318 316.975 597.988 317.218 597.602 317.404C597.222 317.598 596.767 317.694 596.237 317.694C596.08 317.694 595.879 317.673 595.636 317.63C595.392 317.587 595.22 317.551 595.12 317.522L595.109 315.911C595.167 315.918 595.256 315.925 595.378 315.933C595.507 315.947 595.596 315.954 595.646 315.954C596.098 315.954 596.481 315.893 596.796 315.771C597.111 315.657 597.376 315.46 597.591 315.181C597.813 314.909 598.003 314.533 598.16 314.053L598.987 311.797ZM596.613 301.377L599.632 310.4L600.147 312.495L598.719 313.226L594.443 301.377H596.613ZM608.505 297.359L608.365 308.585H606.571L606.421 297.359H608.505ZM606.356 312.001C606.356 311.679 606.453 311.407 606.646 311.185C606.847 310.963 607.141 310.852 607.527 310.852C607.907 310.852 608.197 310.963 608.397 311.185C608.605 311.407 608.709 311.679 608.709 312.001C608.709 312.309 608.605 312.574 608.397 312.796C608.197 313.018 607.907 313.129 607.527 313.129C607.141 313.129 606.847 313.018 606.646 312.796C606.453 312.574 606.356 312.309 606.356 312.001Z" fill="#7AA3DF"/>
<path d="M237.889 256.157V270.537C237.889 273.32 238.059 275.083 238.399 275.825C239.049 277.248 240.58 277.959 242.992 277.959C246.579 277.959 250.12 276.985 253.614 275.037C257.14 273.057 260.186 270.336 262.752 266.873C263.587 265.728 264.19 265.002 264.562 264.692C264.933 264.383 265.335 264.229 265.768 264.229C266.293 264.229 266.726 264.43 267.066 264.832C267.407 265.203 267.577 265.682 267.577 266.27C267.577 267.568 266.541 269.316 264.469 271.511C261.747 274.325 258.361 276.614 254.31 278.376C250.29 280.139 246.362 281.021 242.528 281.021C235.941 281.021 230.127 278.809 225.086 274.387C222.149 271.79 219.891 268.589 218.314 264.785C216.922 261.445 216.227 258.105 216.227 254.766C216.227 251.549 216.845 248.333 218.082 245.117C219.319 241.87 221.02 239.071 223.185 236.721C225.689 233.969 228.658 231.835 232.091 230.32C235.462 228.835 238.987 228.093 242.667 228.093C248.388 228.093 253.568 229.779 258.207 233.149C265.443 238.407 269.03 246.029 268.968 256.018H258.16L244.244 256.064L237.889 256.157ZM249.764 253.096V239.551C249.702 236.644 249.64 234.912 249.579 234.355C249.517 233.768 249.3 233.227 248.929 232.732C248.063 231.526 246.301 230.923 243.641 230.923C240.92 230.923 239.219 231.619 238.539 233.01C238.106 233.845 237.889 236.025 237.889 239.551V253.096L243.548 253.281L249.764 253.096ZM300.001 229.346V235.793C303.619 233.227 307.16 231.309 310.624 230.042C314.087 228.743 317.458 228.093 320.736 228.093C325.127 228.093 328.838 229.098 331.869 231.108C334.157 232.624 335.688 234.51 336.461 236.768C337.265 238.994 337.667 242.643 337.667 247.715L337.574 269.192L337.713 280H314.103L314.288 267.104L314.427 257.642L314.381 243.354C314.35 240.046 314.304 238.082 314.242 237.463C314.211 236.814 314.072 236.242 313.824 235.747C313.329 234.757 312.263 234.263 310.624 234.263C309.108 234.263 307.469 234.696 305.707 235.562C303.944 236.427 302.042 237.726 300.001 239.458L299.955 241.36L299.862 254.395L299.769 264.368L299.908 278.005L299.955 280H276.251L276.39 261.816L276.529 249.802L276.39 239.412L276.251 229.346H300.001ZM373.431 213.018L372.921 228L372.875 229.438C375.565 229.438 378.008 229.33 380.204 229.114C380.575 229.083 380.899 229.067 381.178 229.067C382.538 229.067 383.219 229.686 383.219 230.923C383.219 232.067 382.507 232.639 381.085 232.639C380.652 232.639 380.111 232.608 379.461 232.546C377.018 232.361 375.271 232.268 374.22 232.268H372.875L372.828 241.267L373.014 259.312L373.153 268.96C373.153 271.217 373.323 272.795 373.663 273.691C374.003 274.588 374.591 275.037 375.426 275.037C376.539 275.037 377.73 274.387 378.998 273.088C380.235 271.79 381.209 270.197 381.92 268.311C382.569 266.517 383.342 265.62 384.239 265.62C385.291 265.62 385.816 266.208 385.816 267.383C385.816 268.558 385.291 270.027 384.239 271.79C383.188 273.521 381.92 275.037 380.436 276.335C376.786 279.521 372.055 281.113 366.241 281.113C360.768 281.113 356.531 279.459 353.531 276.15C351.985 274.48 350.918 272.625 350.331 270.583C349.743 268.512 349.449 265.651 349.449 262.002V258.523L349.496 248.735V232.129C349.063 232.098 348.753 232.083 348.568 232.083C348.259 232.083 347.64 232.113 346.712 232.175C345.939 232.237 345.29 232.268 344.764 232.268C343.249 232.268 342.491 231.696 342.491 230.552C342.491 229.438 343.218 228.882 344.671 228.882C345.352 228.882 345.831 228.897 346.109 228.928L349.496 229.16V223.918C358.649 220.61 366.628 216.976 373.431 213.018ZM408.128 256.157V270.537C408.128 273.32 408.299 275.083 408.639 275.825C409.288 277.248 410.819 277.959 413.231 277.959C416.818 277.959 420.359 276.985 423.854 275.037C427.379 273.057 430.425 270.336 432.992 266.873C433.827 265.728 434.43 265.002 434.801 264.692C435.172 264.383 435.574 264.229 436.007 264.229C436.533 264.229 436.965 264.43 437.306 264.832C437.646 265.203 437.816 265.682 437.816 266.27C437.816 267.568 436.78 269.316 434.708 271.511C431.987 274.325 428.6 276.614 424.549 278.376C420.529 280.139 416.602 281.021 412.767 281.021C406.18 281.021 400.366 278.809 395.326 274.387C392.388 271.79 390.13 268.589 388.553 264.785C387.162 261.445 386.466 258.105 386.466 254.766C386.466 251.549 387.084 248.333 388.321 245.117C389.558 241.87 391.259 239.071 393.424 236.721C395.929 233.969 398.897 231.835 402.33 230.32C405.701 228.835 409.226 228.093 412.906 228.093C418.627 228.093 423.807 229.779 428.446 233.149C435.682 238.407 439.269 246.029 439.208 256.018H428.399L414.483 256.064L408.128 256.157ZM420.003 253.096V239.551C419.942 236.644 419.88 234.912 419.818 234.355C419.756 233.768 419.54 233.227 419.168 232.732C418.303 231.526 416.54 230.923 413.88 230.923C411.159 230.923 409.458 231.619 408.778 233.01C408.345 233.845 408.128 236.025 408.128 239.551V253.096L413.788 253.281L420.003 253.096ZM479.378 249.106V243.447C479.347 239.52 479.286 237.108 479.193 236.211C479.1 235.314 478.822 234.51 478.358 233.799C477.245 232.067 474.647 231.201 470.565 231.201C464.256 231.201 459.386 233.18 455.953 237.139C454.562 238.747 453.386 239.551 452.428 239.551C451.716 239.551 451.098 239.303 450.572 238.809C450.047 238.314 449.784 237.742 449.784 237.092C449.784 235.144 452.088 233.134 456.695 231.062C461.087 229.083 466.761 228.093 473.719 228.093C485.161 228.093 493.233 229.825 497.933 233.289C499.974 234.804 501.304 236.505 501.922 238.391C502.541 240.278 502.85 243.602 502.85 248.364V266.78C502.726 270.181 502.819 272.748 503.128 274.48C503.469 276.181 504.211 278.021 505.355 280H479.378V275.129C476.533 277.078 473.704 278.547 470.89 279.536C468.106 280.526 465.354 281.021 462.633 281.021C458.025 281.021 453.928 279.675 450.34 276.985C445.671 273.459 443.336 268.883 443.336 263.254C443.336 258.276 445.222 254.255 448.995 251.194C453.386 247.576 458.829 245.767 465.323 245.767C467.983 245.767 470.333 246.014 472.374 246.509C474.415 246.973 476.75 247.839 479.378 249.106ZM479.425 252.446C475.528 250.498 472.513 249.524 470.379 249.524C468.586 249.524 467.411 250.235 466.854 251.658C466.545 252.431 466.39 254.673 466.39 258.384V269.47C466.421 271.913 466.498 273.398 466.622 273.923C466.931 275.346 467.983 276.057 469.776 276.057C471.199 276.057 472.776 275.64 474.508 274.805C476.271 273.939 477.879 272.81 479.332 271.418L479.425 252.446ZM512.545 271.418C513.163 271.418 513.952 271.882 514.911 272.81C516.457 274.264 518.653 275.516 521.498 276.567C524.343 277.588 527.002 278.098 529.476 278.098C530.62 278.098 531.471 277.913 532.027 277.542C532.615 277.139 532.909 276.567 532.909 275.825C532.909 275.083 532.507 274.202 531.703 273.181C530.93 272.13 529.182 270.135 526.461 267.197C519.812 260.085 515.498 255.09 513.519 252.214C511.571 249.307 510.597 246.524 510.597 243.865C510.597 241.545 511.262 239.334 512.591 237.231C513.952 235.098 515.838 233.289 518.25 231.804C522.24 229.33 526.817 228.093 531.981 228.093C535.785 228.093 539.805 228.897 544.042 230.505C547.35 231.773 549.005 233.149 549.005 234.634C549.005 235.098 548.804 235.515 548.402 235.886C548.031 236.257 547.598 236.443 547.103 236.443C546.515 236.443 545.418 235.871 543.81 234.727C540.532 232.376 536.96 231.201 533.094 231.201C531.734 231.201 530.698 231.418 529.986 231.851C529.306 232.284 528.966 232.948 528.966 233.845C528.966 234.897 529.6 236.226 530.868 237.834C532.167 239.443 534.78 242.164 538.707 245.999C542.542 249.74 544.969 252.199 545.99 253.374C547.041 254.518 548.046 255.848 549.005 257.363C550.644 259.961 551.463 262.775 551.463 265.806C551.463 270.568 549.16 274.418 544.552 277.356C540.779 279.799 536.14 281.021 530.636 281.021C524.513 281.021 519.085 279.66 514.354 276.938C512.962 276.104 512.004 275.423 511.478 274.897C510.983 274.372 510.736 273.8 510.736 273.181C510.736 272.037 511.339 271.449 512.545 271.418ZM577.625 256.157V270.537C577.625 273.32 577.796 275.083 578.136 275.825C578.785 277.248 580.316 277.959 582.728 277.959C586.315 277.959 589.856 276.985 593.351 275.037C596.876 273.057 599.922 270.336 602.489 266.873C603.324 265.728 603.927 265.002 604.298 264.692C604.669 264.383 605.071 264.229 605.504 264.229C606.03 264.229 606.463 264.43 606.803 264.832C607.143 265.203 607.313 265.682 607.313 266.27C607.313 267.568 606.277 269.316 604.205 271.511C601.484 274.325 598.097 276.614 594.046 278.376C590.026 280.139 586.099 281.021 582.264 281.021C575.677 281.021 569.863 278.809 564.823 274.387C561.885 271.79 559.627 268.589 558.05 264.785C556.659 261.445 555.963 258.105 555.963 254.766C555.963 251.549 556.581 248.333 557.818 245.117C559.055 241.87 560.756 239.071 562.921 236.721C565.426 233.969 568.395 231.835 571.827 230.32C575.198 228.835 578.723 228.093 582.403 228.093C588.124 228.093 593.304 229.779 597.943 233.149C605.179 238.407 608.766 246.029 608.705 256.018H597.896L583.98 256.064L577.625 256.157ZM589.5 253.096V239.551C589.439 236.644 589.377 234.912 589.315 234.355C589.253 233.768 589.037 233.227 588.666 232.732C587.8 231.526 586.037 230.923 583.377 230.923C580.656 230.923 578.955 231.619 578.275 233.01C577.842 233.845 577.625 236.025 577.625 239.551V253.096L583.285 253.281L589.5 253.096Z" fill="#7AA3DF"/>
<path d="M139.014 240.895C148.389 247.34 158.496 252.857 169.336 257.447C180.273 261.939 191.992 265.455 204.492 267.994C207.52 268.58 209.033 270.045 209.033 272.389C209.033 275.611 206.787 277.223 202.295 277.223C192.041 277.223 177.637 272.73 159.082 263.746C143.652 256.227 125.977 244.605 106.055 228.883V234.889L106.201 259.791V274H16.9922V267.408L17.2852 219.654L17.7246 162.525L17.4316 74.0488H76.3184C102.686 74.0488 122.607 74.7812 136.084 76.2461C149.561 77.7109 161.035 80.4453 170.508 84.4492C185.938 90.8945 198.145 101.49 207.129 116.236C215.43 129.908 219.58 144.264 219.58 159.303C219.58 175.318 214.941 190.406 205.664 204.566C190.723 227.32 168.506 239.43 139.014 240.895ZM125.098 231.812L132.129 231.959C152.246 231.959 169.238 226.344 183.105 215.113C191.895 208.082 198.633 199.293 203.32 188.746C207.715 179.078 209.912 169.215 209.912 159.156C209.912 142.066 204.346 126.783 193.213 113.307C184.717 102.857 174.072 95.4844 161.279 91.1875C148.486 86.8906 130.469 84.5957 107.227 84.3027L105.908 182.447V208.961L106.055 215.846C112.012 221.607 118.359 226.93 125.098 231.812Z" fill="#7AA3DF"/>
</svg>
